<?xml version="1.0" encoding="UTF-8" standalone="no"?>
<!DOCTYPE svg PUBLIC "-//W3C//DTD SVG 1.1//EN"
 "http://www.w3.org/Graphics/SVG/1.1/DTD/svg11.dtd">
<!-- Generated by graphviz version 13.1.0 (20250701.0955)
 -->
<!-- Title: src/driver_pca9548a.h Pages: 1 -->
<svg width="411pt" height="232pt"
 viewBox="0.00 0.00 411.00 232.00" xmlns="http://www.w3.org/2000/svg" xmlns:xlink="http://www.w3.org/1999/xlink">
<g id="graph0" class="graph" transform="scale(1 1) rotate(0) translate(4 228)">
<title>src/driver_pca9548a.h</title>
<!-- Node1 -->
<g id="Node000001" class="node">
<title>Node1</title>
<g id="a_Node000001"><a xlink:title="driver pca9548a header file">
<polygon fill="#999999" stroke="#666666" points="333.5,-224 221.5,-224 221.5,-204 333.5,-204 333.5,-224"/>
<text xml:space="preserve" text-anchor="middle" x="277.5" y="-210.5" font-family="Helvetica,sans-Serif" font-size="10.00">src/driver_pca9548a.h</text>
</a>
</g>
</g>
<!-- Node2 -->
<g id="Node000002" class="node">
<title>Node2</title>
<g id="a_Node000002"><a xlink:href="driver__pca9548a__interface_8h.html" target="_top" xlink:title="driver pca9548a interface header file">
<polygon fill="white" stroke="#666666" points="272.38,-168 144.62,-168 144.62,-136 272.38,-136 272.38,-168"/>
<text xml:space="preserve" text-anchor="start" x="152.62" y="-154.5" font-family="Helvetica,sans-Serif" font-size="10.00">interface/driver_pca9548a</text>
<text xml:space="preserve" text-anchor="middle" x="208.5" y="-142.5" font-family="Helvetica,sans-Serif" font-size="10.00">_interface.h</text>
</a>
</g>
</g>
<!-- Node1&#45;&gt;Node2 -->
<g id="edge1_Node000001_Node000002" class="edge">
<title>Node1&#45;&gt;Node2</title>
<g id="a_edge1_Node000001_Node000002"><a xlink:title=" ">
<path fill="none" stroke="#63b8ff" d="M258.23,-196.24C248.18,-187.51 235.98,-176.9 226.18,-168.37"/>
<polygon fill="#63b8ff" stroke="#63b8ff" points="255.73,-198.71 265.58,-202.63 260.33,-193.43 255.73,-198.71"/>
</a>
</g>
</g>
<!-- Node8 -->
<g id="Node000008" class="node">
<title>Node8</title>
<g id="a_Node000008"><a xlink:href="driver__pca9548a_8c.html" target="_top" xlink:title="driver pca9548a source file">
<polygon fill="white" stroke="#666666" points="402.5,-162 290.5,-162 290.5,-142 402.5,-142 402.5,-162"/>
<text xml:space="preserve" text-anchor="middle" x="346.5" y="-148.5" font-family="Helvetica,sans-Serif" font-size="10.00">src/driver_pca9548a.c</text>
</a>
</g>
</g>
<!-- Node1&#45;&gt;Node8 -->
<g id="edge7_Node000001_Node000008" class="edge">
<title>Node1&#45;&gt;Node8</title>
<g id="a_edge7_Node000001_Node000008"><a xlink:title=" ">
<path fill="none" stroke="#63b8ff" d="M296.79,-196.22C309.5,-185.18 325.64,-171.14 336.02,-162.11"/>
<polygon fill="#63b8ff" stroke="#63b8ff" points="294.67,-193.43 289.42,-202.63 299.27,-198.71 294.67,-193.43"/>
</a>
</g>
</g>
<!-- Node3 -->
<g id="Node000003" class="node">
<title>Node3</title>
<g id="a_Node000003"><a xlink:href="driver__pca9548a__basic_8h.html" target="_top" xlink:title="driver pca9548a basic header file">
<polygon fill="white" stroke="#666666" points="127,-100 0,-100 0,-68 127,-68 127,-100"/>
<text xml:space="preserve" text-anchor="start" x="8" y="-86.5" font-family="Helvetica,sans-Serif" font-size="10.00">example/driver_pca9548a</text>
<text xml:space="preserve" text-anchor="middle" x="63.5" y="-74.5" font-family="Helvetica,sans-Serif" font-size="10.00">_basic.h</text>
</a>
</g>
</g>
<!-- Node2&#45;&gt;Node3 -->
<g id="edge2_Node000002_Node000003" class="edge">
<title>Node2&#45;&gt;Node3</title>
<g id="a_edge2_Node000002_Node000003"><a xlink:title=" ">
<path fill="none" stroke="#63b8ff" d="M164.03,-130.76C142.63,-121.02 117.38,-109.52 97.53,-100.49"/>
<polygon fill="#63b8ff" stroke="#63b8ff" points="162.57,-133.94 173.13,-134.9 165.47,-127.57 162.57,-133.94"/>
</a>
</g>
</g>
<!-- Node5 -->
<g id="Node000005" class="node">
<title>Node5</title>
<g id="a_Node000005"><a xlink:href="driver__pca9548a__interface__template_8c.html" target="_top" xlink:title="driver pca9548a interface template source file">
<polygon fill="white" stroke="#666666" points="272.38,-100 144.62,-100 144.62,-68 272.38,-68 272.38,-100"/>
<text xml:space="preserve" text-anchor="start" x="152.62" y="-86.5" font-family="Helvetica,sans-Serif" font-size="10.00">interface/driver_pca9548a</text>
<text xml:space="preserve" text-anchor="middle" x="208.5" y="-74.5" font-family="Helvetica,sans-Serif" font-size="10.00">_interface_template.c</text>
</a>
</g>
</g>
<!-- Node2&#45;&gt;Node5 -->
<g id="edge4_Node000002_Node000005" class="edge">
<title>Node2&#45;&gt;Node5</title>
<g id="a_edge4_Node000002_Node000005"><a xlink:title=" ">
<path fill="none" stroke="#63b8ff" d="M208.5,-124.31C208.5,-116.12 208.5,-107.38 208.5,-100.22"/>
<polygon fill="#63b8ff" stroke="#63b8ff" points="205,-124.18 208.5,-134.18 212,-124.18 205,-124.18"/>
</a>
</g>
</g>
<!-- Node6 -->
<g id="Node000006" class="node">
<title>Node6</title>
<g id="a_Node000006"><a xlink:href="driver__pca9548a__register__test_8h.html" target="_top" xlink:title="driver pca9548a register test header file">
<polygon fill="white" stroke="#666666" points="396.88,-100 290.12,-100 290.12,-68 396.88,-68 396.88,-100"/>
<text xml:space="preserve" text-anchor="start" x="298.12" y="-86.5" font-family="Helvetica,sans-Serif" font-size="10.00">test/driver_pca9548a</text>
<text xml:space="preserve" text-anchor="middle" x="343.5" y="-74.5" font-family="Helvetica,sans-Serif" font-size="10.00">_register_test.h</text>
</a>
</g>
</g>
<!-- Node2&#45;&gt;Node6 -->
<g id="edge5_Node000002_Node000006" class="edge">
<title>Node2&#45;&gt;Node6</title>
<g id="a_edge5_Node000002_Node000006"><a xlink:title=" ">
<path fill="none" stroke="#63b8ff" d="M250.49,-130.47C270.37,-120.75 293.72,-109.34 312.05,-100.38"/>
<polygon fill="#63b8ff" stroke="#63b8ff" points="248.96,-127.32 241.51,-134.86 252.03,-133.61 248.96,-127.32"/>
</a>
</g>
</g>
<!-- Node4 -->
<g id="Node000004" class="node">
<title>Node4</title>
<g id="a_Node000004"><a xlink:href="driver__pca9548a__basic_8c.html" target="_top" xlink:title="driver pca9548a basic source file">
<polygon fill="white" stroke="#666666" points="127,-32 0,-32 0,0 127,0 127,-32"/>
<text xml:space="preserve" text-anchor="start" x="8" y="-18.5" font-family="Helvetica,sans-Serif" font-size="10.00">example/driver_pca9548a</text>
<text xml:space="preserve" text-anchor="middle" x="63.5" y="-6.5" font-family="Helvetica,sans-Serif" font-size="10.00">_basic.c</text>
</a>
</g>
</g>
<!-- Node3&#45;&gt;Node4 -->
<g id="edge3_Node000003_Node000004" class="edge">
<title>Node3&#45;&gt;Node4</title>
<g id="a_edge3_Node000003_Node000004"><a xlink:title=" ">
<path fill="none" stroke="#63b8ff" d="M63.5,-56.31C63.5,-48.12 63.5,-39.38 63.5,-32.22"/>
<polygon fill="#63b8ff" stroke="#63b8ff" points="60,-56.18 63.5,-66.18 67,-56.18 60,-56.18"/>
</a>
</g>
</g>
<!-- Node7 -->
<g id="Node000007" class="node">
<title>Node7</title>
<g id="a_Node000007"><a xlink:href="driver__pca9548a__register__test_8c.html" target="_top" xlink:title="driver pca9548a register test source file">
<polygon fill="white" stroke="#666666" points="396.88,-32 290.12,-32 290.12,0 396.88,0 396.88,-32"/>
<text xml:space="preserve" text-anchor="start" x="298.12" y="-18.5" font-family="Helvetica,sans-Serif" font-size="10.00">test/driver_pca9548a</text>
<text xml:space="preserve" text-anchor="middle" x="343.5" y="-6.5" font-family="Helvetica,sans-Serif" font-size="10.00">_register_test.c</text>
</a>
</g>
</g>
<!-- Node6&#45;&gt;Node7 -->
<g id="edge6_Node000006_Node000007" class="edge">
<title>Node6&#45;&gt;Node7</title>
<g id="a_edge6_Node000006_Node000007"><a xlink:title=" ">
<path fill="none" stroke="#63b8ff" d="M343.5,-56.31C343.5,-48.12 343.5,-39.38 343.5,-32.22"/>
<polygon fill="#63b8ff" stroke="#63b8ff" points="340,-56.18 343.5,-66.18 347,-56.18 340,-56.18"/>
</a>
</g>
</g>
</g>
</svg>
