<?xml version="1.0" encoding="UTF-8" standalone="no"?>
<!DOCTYPE svg PUBLIC "-//W3C//DTD SVG 1.1//EN"
 "http://www.w3.org/Graphics/SVG/1.1/DTD/svg11.dtd">
<!-- Generated by graphviz version 13.1.0 (20250701.0955)
 -->
<!-- Title: pca9548a driver function Pages: 1 -->
<svg width="291pt" height="240pt"
 viewBox="0.00 0.00 291.00 240.00" xmlns="http://www.w3.org/2000/svg" xmlns:xlink="http://www.w3.org/1999/xlink">
<g id="graph0" class="graph" transform="scale(1 1) rotate(0) translate(4 236)">
<title>pca9548a driver function</title>
<!-- Node3 -->
<g id="Node000003" class="node">
<title>Node3</title>
<g id="a_Node000003"><a xlink:href="group__pca9548a__base__driver.html" target="_top" xlink:title="pca9548a base driver modules">
<polygon fill="white" stroke="#666666" points="275.38,-232 166.38,-232 166.38,-200 275.38,-200 275.38,-232"/>
<text xml:space="preserve" text-anchor="start" x="174.38" y="-218.5" font-family="Helvetica,sans-Serif" font-size="10.00">pca9548a base driver</text>
<text xml:space="preserve" text-anchor="middle" x="220.88" y="-206.5" font-family="Helvetica,sans-Serif" font-size="10.00"> function</text>
</a>
</g>
</g>
<!-- Node1 -->
<g id="Node000001" class="node">
<title>Node1</title>
<g id="a_Node000001"><a xlink:title="pca9548a driver modules">
<polygon fill="#999999" stroke="#666666" points="122.5,-126 0,-126 0,-106 122.5,-106 122.5,-126"/>
<text xml:space="preserve" text-anchor="middle" x="61.25" y="-112.5" font-family="Helvetica,sans-Serif" font-size="10.00">pca9548a driver function</text>
</a>
</g>
</g>
<!-- Node1&#45;&gt;Node3 -->
<g id="edge2" class="edge">
<title>Node1&#45;&gt;Node3</title>
<path fill="none" stroke="black" d="M81.85,-133.91C100.52,-150.32 129.95,-174.49 158.5,-191 163.78,-194.05 169.5,-196.91 175.26,-199.53"/>
<polygon fill="black" stroke="black" points="84.28,-131.39 74.49,-127.35 79.62,-136.62 84.28,-131.39"/>
</g>
<!-- Node5 -->
<g id="Node000005" class="node">
<title>Node5</title>
<g id="a_Node000005"><a xlink:href="group__pca9548a__example__driver.html" target="_top" xlink:title="pca9548a example driver modules">
<polygon fill="white" stroke="#666666" points="283.25,-182 158.5,-182 158.5,-150 283.25,-150 283.25,-182"/>
<text xml:space="preserve" text-anchor="start" x="166.5" y="-168.5" font-family="Helvetica,sans-Serif" font-size="10.00">pca9548a example driver</text>
<text xml:space="preserve" text-anchor="middle" x="220.88" y="-156.5" font-family="Helvetica,sans-Serif" font-size="10.00"> function</text>
</a>
</g>
</g>
<!-- Node1&#45;&gt;Node5 -->
<g id="edge4" class="edge">
<title>Node1&#45;&gt;Node5</title>
<path fill="none" stroke="black" d="M106.14,-129.92C125.31,-136 147.94,-143.18 167.95,-149.53"/>
<polygon fill="black" stroke="black" points="107.33,-126.63 96.74,-126.94 105.21,-133.3 107.33,-126.63"/>
</g>
<!-- Node4 -->
<g id="Node000004" class="node">
<title>Node4</title>
<g id="a_Node000004"><a xlink:href="group__pca9548a__interface__driver.html" target="_top" xlink:title="pca9548a interface driver modules">
<polygon fill="white" stroke="#666666" points="270.12,-132 171.62,-132 171.62,-100 270.12,-100 270.12,-132"/>
<text xml:space="preserve" text-anchor="start" x="179.62" y="-118.5" font-family="Helvetica,sans-Serif" font-size="10.00">pca9548a interface</text>
<text xml:space="preserve" text-anchor="middle" x="220.88" y="-106.5" font-family="Helvetica,sans-Serif" font-size="10.00"> driver function</text>
</a>
</g>
</g>
<!-- Node1&#45;&gt;Node4 -->
<g id="edge3" class="edge">
<title>Node1&#45;&gt;Node4</title>
<path fill="none" stroke="black" d="M134.24,-116C146.87,-116 159.73,-116 171.52,-116"/>
<polygon fill="black" stroke="black" points="134.25,-112.5 124.25,-116 134.25,-119.5 134.25,-112.5"/>
</g>
<!-- Node2 -->
<g id="Node000002" class="node">
<title>Node2</title>
<g id="a_Node000002"><a xlink:href="group__pca9548a__link__driver.html" target="_top" xlink:title="pca9548a link driver modules">
<polygon fill="white" stroke="#666666" points="272.38,-82 169.38,-82 169.38,-50 272.38,-50 272.38,-82"/>
<text xml:space="preserve" text-anchor="start" x="177.38" y="-68.5" font-family="Helvetica,sans-Serif" font-size="10.00">pca9548a link driver</text>
<text xml:space="preserve" text-anchor="middle" x="220.88" y="-56.5" font-family="Helvetica,sans-Serif" font-size="10.00"> function</text>
</a>
</g>
</g>
<!-- Node1&#45;&gt;Node2 -->
<g id="edge1" class="edge">
<title>Node1&#45;&gt;Node2</title>
<path fill="none" stroke="black" d="M106.06,-102.1C125.64,-95.89 148.85,-88.53 169.18,-82.08"/>
<polygon fill="black" stroke="black" points="105.21,-98.7 96.74,-105.06 107.33,-105.37 105.21,-98.7"/>
</g>
<!-- Node6 -->
<g id="Node000006" class="node">
<title>Node6</title>
<g id="a_Node000006"><a xlink:href="group__pca9548a__test__driver.html" target="_top" xlink:title="pca9548a test driver modules">
<polygon fill="white" stroke="#666666" points="273.12,-32 168.62,-32 168.62,0 273.12,0 273.12,-32"/>
<text xml:space="preserve" text-anchor="start" x="176.62" y="-18.5" font-family="Helvetica,sans-Serif" font-size="10.00">pca9548a test driver</text>
<text xml:space="preserve" text-anchor="middle" x="220.88" y="-6.5" font-family="Helvetica,sans-Serif" font-size="10.00"> function</text>
</a>
</g>
</g>
<!-- Node1&#45;&gt;Node6 -->
<g id="edge5" class="edge">
<title>Node1&#45;&gt;Node6</title>
<path fill="none" stroke="black" d="M81.85,-98.09C100.52,-81.68 129.95,-57.51 158.5,-41 163.78,-37.95 169.5,-35.09 175.26,-32.47"/>
<polygon fill="black" stroke="black" points="79.62,-95.38 74.49,-104.65 84.28,-100.61 79.62,-95.38"/>
</g>
</g>
</svg>
