<?xml version="1.0" encoding="UTF-8" standalone="no"?>
<!DOCTYPE svg PUBLIC "-//W3C//DTD SVG 1.1//EN"
 "http://www.w3.org/Graphics/SVG/1.1/DTD/svg11.dtd">
<!-- Generated by graphviz version 13.1.0 (20250701.0955)
 -->
<!-- Title: pca9548a_basic_init Pages: 1 -->
<svg width="267pt" height="716pt"
 viewBox="0.00 0.00 267.00 716.00" xmlns="http://www.w3.org/2000/svg" xmlns:xlink="http://www.w3.org/1999/xlink">
<g id="graph0" class="graph" transform="scale(1 1) rotate(0) translate(4 712)">
<title>pca9548a_basic_init</title>
<!-- Node1 -->
<g id="Node000001" class="node">
<title>Node1</title>
<g id="a_Node000001"><a xlink:title="basic example init">
<polygon fill="#999999" stroke="#666666" points="104.5,-364 0,-364 0,-344 104.5,-344 104.5,-364"/>
<text xml:space="preserve" text-anchor="middle" x="52.25" y="-350.5" font-family="Helvetica,sans-Serif" font-size="10.00">pca9548a_basic_init</text>
</a>
</g>
</g>
<!-- Node2 -->
<g id="Node000002" class="node">
<title>Node2</title>
<g id="a_Node000002"><a xlink:href="group__pca9548a__base__driver.html#ga3f7d3bfaa5d4b690ba580e0592888b5d" target="_top" xlink:title="initialize the chip">
<polygon fill="white" stroke="#666666" points="237.88,-708 161.88,-708 161.88,-688 237.88,-688 237.88,-708"/>
<text xml:space="preserve" text-anchor="middle" x="199.88" y="-694.5" font-family="Helvetica,sans-Serif" font-size="10.00">pca9548a_init</text>
</a>
</g>
</g>
<!-- Node1&#45;&gt;Node2 -->
<g id="edge1_Node000001_Node000002" class="edge">
<title>Node1&#45;&gt;Node2</title>
<g id="a_edge1_Node000001_Node000002"><a xlink:title=" ">
<path fill="none" stroke="#63b8ff" d="M52.74,-364.4C51.17,-408.82 51.02,-584.71 140.5,-679 143.59,-682.26 147.24,-684.95 151.19,-687.19"/>
<polygon fill="#63b8ff" stroke="#63b8ff" points="149.52,-690.28 160.07,-691.23 152.42,-683.9 149.52,-690.28"/>
</a>
</g>
</g>
<!-- Node3 -->
<g id="Node000003" class="node">
<title>Node3</title>
<g id="a_Node000003"><a xlink:href="group__pca9548a__interface__driver.html#ga0490990d7294eccf61db2062c4eb7477" target="_top" xlink:title="interface print format data">
<polygon fill="white" stroke="#666666" points="250.25,-670 149.5,-670 149.5,-638 250.25,-638 250.25,-670"/>
<text xml:space="preserve" text-anchor="start" x="157.5" y="-656.5" font-family="Helvetica,sans-Serif" font-size="10.00">pca9548a_interface</text>
<text xml:space="preserve" text-anchor="middle" x="199.88" y="-644.5" font-family="Helvetica,sans-Serif" font-size="10.00">_debug_print</text>
</a>
</g>
</g>
<!-- Node1&#45;&gt;Node3 -->
<g id="edge2_Node000001_Node000003" class="edge">
<title>Node1&#45;&gt;Node3</title>
<g id="a_edge2_Node000001_Node000003"><a xlink:title=" ">
<path fill="none" stroke="#63b8ff" d="M53.57,-364.48C55.35,-404.26 66.8,-547.75 140.5,-629 140.96,-629.51 141.44,-630.01 141.92,-630.5"/>
<polygon fill="#63b8ff" stroke="#63b8ff" points="139.52,-633.06 149.48,-636.66 143.94,-627.63 139.52,-633.06"/>
</a>
</g>
</g>
<!-- Node4 -->
<g id="Node000004" class="node">
<title>Node4</title>
<g id="a_Node000004"><a xlink:href="group__pca9548a__interface__driver.html#ga97f98563cd1b334707ce6f94d57d6d4c" target="_top" xlink:title="interface delay ms">
<polygon fill="white" stroke="#666666" points="250.25,-620 149.5,-620 149.5,-588 250.25,-588 250.25,-620"/>
<text xml:space="preserve" text-anchor="start" x="157.5" y="-606.5" font-family="Helvetica,sans-Serif" font-size="10.00">pca9548a_interface</text>
<text xml:space="preserve" text-anchor="middle" x="199.88" y="-594.5" font-family="Helvetica,sans-Serif" font-size="10.00">_delay_ms</text>
</a>
</g>
</g>
<!-- Node1&#45;&gt;Node4 -->
<g id="edge3_Node000001_Node000004" class="edge">
<title>Node1&#45;&gt;Node4</title>
<g id="a_edge3_Node000001_Node000004"><a xlink:title=" ">
<path fill="none" stroke="#63b8ff" d="M54.43,-364.48C58.91,-399.55 77.92,-514.21 140.5,-579 141.09,-579.61 141.69,-580.21 142.32,-580.79"/>
<polygon fill="#63b8ff" stroke="#63b8ff" points="139.9,-583.34 149.96,-586.67 144.17,-577.8 139.9,-583.34"/>
</a>
</g>
</g>
<!-- Node5 -->
<g id="Node000005" class="node">
<title>Node5</title>
<g id="a_Node000005"><a xlink:href="group__pca9548a__interface__driver.html#ga1878a1e5bc9b1c981896f484fa1aa484" target="_top" xlink:title="interface iic bus deinit">
<polygon fill="white" stroke="#666666" points="250.25,-570 149.5,-570 149.5,-538 250.25,-538 250.25,-570"/>
<text xml:space="preserve" text-anchor="start" x="157.5" y="-556.5" font-family="Helvetica,sans-Serif" font-size="10.00">pca9548a_interface</text>
<text xml:space="preserve" text-anchor="middle" x="199.88" y="-544.5" font-family="Helvetica,sans-Serif" font-size="10.00">_iic_deinit</text>
</a>
</g>
</g>
<!-- Node1&#45;&gt;Node5 -->
<g id="edge4_Node000001_Node000005" class="edge">
<title>Node1&#45;&gt;Node5</title>
<g id="a_edge4_Node000001_Node000005"><a xlink:title=" ">
<path fill="none" stroke="#63b8ff" d="M55.67,-364.18C63.16,-393.66 88.65,-480.07 140.5,-529 141.25,-529.71 142.03,-530.4 142.83,-531.08"/>
<polygon fill="#63b8ff" stroke="#63b8ff" points="140.64,-533.82 150.81,-536.76 144.69,-528.11 140.64,-533.82"/>
</a>
</g>
</g>
<!-- Node6 -->
<g id="Node000006" class="node">
<title>Node6</title>
<g id="a_Node000006"><a xlink:href="group__pca9548a__interface__driver.html#ga223fefbf1f1d5430894c05d61a21611d" target="_top" xlink:title="interface iic bus init">
<polygon fill="white" stroke="#666666" points="250.25,-520 149.5,-520 149.5,-488 250.25,-488 250.25,-520"/>
<text xml:space="preserve" text-anchor="start" x="157.5" y="-506.5" font-family="Helvetica,sans-Serif" font-size="10.00">pca9548a_interface</text>
<text xml:space="preserve" text-anchor="middle" x="199.88" y="-494.5" font-family="Helvetica,sans-Serif" font-size="10.00">_iic_init</text>
</a>
</g>
</g>
<!-- Node1&#45;&gt;Node6 -->
<g id="edge5_Node000001_Node000006" class="edge">
<title>Node1&#45;&gt;Node6</title>
<g id="a_edge5_Node000001_Node000006"><a xlink:title=" ">
<path fill="none" stroke="#63b8ff" d="M57.89,-364.18C68.98,-387.52 99.24,-445.43 140.5,-479 141.61,-479.9 142.75,-480.77 143.92,-481.62"/>
<polygon fill="#63b8ff" stroke="#63b8ff" points="141.81,-484.42 152.14,-486.79 145.54,-478.5 141.81,-484.42"/>
</a>
</g>
</g>
<!-- Node7 -->
<g id="Node000007" class="node">
<title>Node7</title>
<g id="a_Node000007"><a xlink:href="group__pca9548a__interface__driver.html#gaef2be080a720c3ce9c04bc34476404a9" target="_top" xlink:title="interface iic bus read">
<polygon fill="white" stroke="#666666" points="250.25,-470 149.5,-470 149.5,-438 250.25,-438 250.25,-470"/>
<text xml:space="preserve" text-anchor="start" x="157.5" y="-456.5" font-family="Helvetica,sans-Serif" font-size="10.00">pca9548a_interface</text>
<text xml:space="preserve" text-anchor="middle" x="199.88" y="-444.5" font-family="Helvetica,sans-Serif" font-size="10.00">_iic_read</text>
</a>
</g>
</g>
<!-- Node1&#45;&gt;Node7 -->
<g id="edge6_Node000001_Node000007" class="edge">
<title>Node1&#45;&gt;Node7</title>
<g id="a_edge6_Node000001_Node000007"><a xlink:title=" ">
<path fill="none" stroke="#63b8ff" d="M63.17,-364.36C78.56,-379.98 109.65,-409.77 140.5,-429 142.36,-430.16 144.28,-431.29 146.25,-432.39"/>
<polygon fill="#63b8ff" stroke="#63b8ff" points="144.49,-435.42 154.98,-436.91 147.71,-429.2 144.49,-435.42"/>
</a>
</g>
</g>
<!-- Node8 -->
<g id="Node000008" class="node">
<title>Node8</title>
<g id="a_Node000008"><a xlink:href="group__pca9548a__interface__driver.html#ga32681e14a28c3594ddc6e75835a2d241" target="_top" xlink:title="interface iic bus read with 16 bits register address">
<polygon fill="white" stroke="#666666" points="252.5,-420 147.25,-420 147.25,-388 252.5,-388 252.5,-420"/>
<text xml:space="preserve" text-anchor="start" x="155.25" y="-406.5" font-family="Helvetica,sans-Serif" font-size="10.00">pca9548a_interface</text>
<text xml:space="preserve" text-anchor="middle" x="199.88" y="-394.5" font-family="Helvetica,sans-Serif" font-size="10.00">_iic_read_address16</text>
</a>
</g>
</g>
<!-- Node1&#45;&gt;Node8 -->
<g id="edge7_Node000001_Node000008" class="edge">
<title>Node1&#45;&gt;Node8</title>
<g id="a_edge7_Node000001_Node000008"><a xlink:title=" ">
<path fill="none" stroke="#63b8ff" d="M83.78,-364.48C100.1,-370.09 120.76,-377.18 140.05,-383.8"/>
<polygon fill="#63b8ff" stroke="#63b8ff" points="138.88,-387.1 149.47,-387.04 141.15,-380.48 138.88,-387.1"/>
</a>
</g>
</g>
<!-- Node9 -->
<g id="Node000009" class="node">
<title>Node9</title>
<g id="a_Node000009"><a xlink:href="group__pca9548a__interface__driver.html#ga7401414249906403220fd31e359120a4" target="_top" xlink:title="interface iic bus read command">
<polygon fill="white" stroke="#666666" points="250.25,-370 149.5,-370 149.5,-338 250.25,-338 250.25,-370"/>
<text xml:space="preserve" text-anchor="start" x="157.5" y="-356.5" font-family="Helvetica,sans-Serif" font-size="10.00">pca9548a_interface</text>
<text xml:space="preserve" text-anchor="middle" x="199.88" y="-344.5" font-family="Helvetica,sans-Serif" font-size="10.00">_iic_read_cmd</text>
</a>
</g>
</g>
<!-- Node1&#45;&gt;Node9 -->
<g id="edge8_Node000001_Node000009" class="edge">
<title>Node1&#45;&gt;Node9</title>
<g id="a_edge8_Node000001_Node000009"><a xlink:title=" ">
<path fill="none" stroke="#63b8ff" d="M104.59,-354C115.41,-354 126.92,-354 138.05,-354"/>
<polygon fill="#63b8ff" stroke="#63b8ff" points="137.95,-357.5 147.95,-354 137.95,-350.5 137.95,-357.5"/>
</a>
</g>
</g>
<!-- Node10 -->
<g id="Node000010" class="node">
<title>Node10</title>
<g id="a_Node000010"><a xlink:href="group__pca9548a__interface__driver.html#gaf0b3c14f749408cd5affe9764d3174c2" target="_top" xlink:title="interface iic bus write">
<polygon fill="white" stroke="#666666" points="250.25,-320 149.5,-320 149.5,-288 250.25,-288 250.25,-320"/>
<text xml:space="preserve" text-anchor="start" x="157.5" y="-306.5" font-family="Helvetica,sans-Serif" font-size="10.00">pca9548a_interface</text>
<text xml:space="preserve" text-anchor="middle" x="199.88" y="-294.5" font-family="Helvetica,sans-Serif" font-size="10.00">_iic_write</text>
</a>
</g>
</g>
<!-- Node1&#45;&gt;Node10 -->
<g id="edge9_Node000001_Node000010" class="edge">
<title>Node1&#45;&gt;Node10</title>
<g id="a_edge9_Node000001_Node000010"><a xlink:title=" ">
<path fill="none" stroke="#63b8ff" d="M83.78,-343.52C100.1,-337.91 120.76,-330.82 140.05,-324.2"/>
<polygon fill="#63b8ff" stroke="#63b8ff" points="141.15,-327.52 149.47,-320.96 138.88,-320.9 141.15,-327.52"/>
</a>
</g>
</g>
<!-- Node11 -->
<g id="Node000011" class="node">
<title>Node11</title>
<g id="a_Node000011"><a xlink:href="group__pca9548a__interface__driver.html#gae7665fb25e55874f59e0008f94f9a36c" target="_top" xlink:title="interface iic bus write with 16 bits register address">
<polygon fill="white" stroke="#666666" points="253.62,-270 146.12,-270 146.12,-238 253.62,-238 253.62,-270"/>
<text xml:space="preserve" text-anchor="start" x="154.12" y="-256.5" font-family="Helvetica,sans-Serif" font-size="10.00">pca9548a_interface</text>
<text xml:space="preserve" text-anchor="middle" x="199.88" y="-244.5" font-family="Helvetica,sans-Serif" font-size="10.00">_iic_write_address16</text>
</a>
</g>
</g>
<!-- Node1&#45;&gt;Node11 -->
<g id="edge10_Node000001_Node000011" class="edge">
<title>Node1&#45;&gt;Node11</title>
<g id="a_edge10_Node000001_Node000011"><a xlink:title=" ">
<path fill="none" stroke="#63b8ff" d="M63.17,-343.64C78.56,-328.02 109.65,-298.23 140.5,-279 142.36,-277.84 144.28,-276.71 146.25,-275.61"/>
<polygon fill="#63b8ff" stroke="#63b8ff" points="147.71,-278.8 154.98,-271.09 144.49,-272.58 147.71,-278.8"/>
</a>
</g>
</g>
<!-- Node12 -->
<g id="Node000012" class="node">
<title>Node12</title>
<g id="a_Node000012"><a xlink:href="group__pca9548a__interface__driver.html#ga34f8da624755959728ed35dfd24ab40b" target="_top" xlink:title="interface iic bus write command">
<polygon fill="white" stroke="#666666" points="250.25,-220 149.5,-220 149.5,-188 250.25,-188 250.25,-220"/>
<text xml:space="preserve" text-anchor="start" x="157.5" y="-206.5" font-family="Helvetica,sans-Serif" font-size="10.00">pca9548a_interface</text>
<text xml:space="preserve" text-anchor="middle" x="199.88" y="-194.5" font-family="Helvetica,sans-Serif" font-size="10.00">_iic_write_cmd</text>
</a>
</g>
</g>
<!-- Node1&#45;&gt;Node12 -->
<g id="edge11_Node000001_Node000012" class="edge">
<title>Node1&#45;&gt;Node12</title>
<g id="a_edge11_Node000001_Node000012"><a xlink:title=" ">
<path fill="none" stroke="#63b8ff" d="M57.89,-343.82C68.98,-320.48 99.24,-262.57 140.5,-229 141.61,-228.1 142.75,-227.23 143.92,-226.38"/>
<polygon fill="#63b8ff" stroke="#63b8ff" points="145.54,-229.5 152.14,-221.21 141.81,-223.58 145.54,-229.5"/>
</a>
</g>
</g>
<!-- Node13 -->
<g id="Node000013" class="node">
<title>Node13</title>
<g id="a_Node000013"><a xlink:href="group__pca9548a__interface__driver.html#ga7aab7a405aef59cf25cb79b67d5a08b3" target="_top" xlink:title="interface reset gpio deinit">
<polygon fill="white" stroke="#666666" points="250.25,-170 149.5,-170 149.5,-138 250.25,-138 250.25,-170"/>
<text xml:space="preserve" text-anchor="start" x="157.5" y="-156.5" font-family="Helvetica,sans-Serif" font-size="10.00">pca9548a_interface</text>
<text xml:space="preserve" text-anchor="middle" x="199.88" y="-144.5" font-family="Helvetica,sans-Serif" font-size="10.00">_reset_gpio_deinit</text>
</a>
</g>
</g>
<!-- Node1&#45;&gt;Node13 -->
<g id="edge12_Node000001_Node000013" class="edge">
<title>Node1&#45;&gt;Node13</title>
<g id="a_edge12_Node000001_Node000013"><a xlink:title=" ">
<path fill="none" stroke="#63b8ff" d="M55.67,-343.82C63.16,-314.34 88.65,-227.93 140.5,-179 141.25,-178.29 142.03,-177.6 142.83,-176.92"/>
<polygon fill="#63b8ff" stroke="#63b8ff" points="144.69,-179.89 150.81,-171.24 140.64,-174.18 144.69,-179.89"/>
</a>
</g>
</g>
<!-- Node14 -->
<g id="Node000014" class="node">
<title>Node14</title>
<g id="a_Node000014"><a xlink:href="group__pca9548a__interface__driver.html#ga97c571868a68eef827dafa282c281f75" target="_top" xlink:title="interface reset gpio init">
<polygon fill="white" stroke="#666666" points="250.25,-120 149.5,-120 149.5,-88 250.25,-88 250.25,-120"/>
<text xml:space="preserve" text-anchor="start" x="157.5" y="-106.5" font-family="Helvetica,sans-Serif" font-size="10.00">pca9548a_interface</text>
<text xml:space="preserve" text-anchor="middle" x="199.88" y="-94.5" font-family="Helvetica,sans-Serif" font-size="10.00">_reset_gpio_init</text>
</a>
</g>
</g>
<!-- Node1&#45;&gt;Node14 -->
<g id="edge13_Node000001_Node000014" class="edge">
<title>Node1&#45;&gt;Node14</title>
<g id="a_edge13_Node000001_Node000014"><a xlink:title=" ">
<path fill="none" stroke="#63b8ff" d="M54.43,-343.52C58.91,-308.45 77.92,-193.79 140.5,-129 141.09,-128.39 141.69,-127.79 142.32,-127.21"/>
<polygon fill="#63b8ff" stroke="#63b8ff" points="144.17,-130.2 149.96,-121.33 139.9,-124.66 144.17,-130.2"/>
</a>
</g>
</g>
<!-- Node15 -->
<g id="Node000015" class="node">
<title>Node15</title>
<g id="a_Node000015"><a xlink:href="group__pca9548a__interface__driver.html#ga1185b43cead637104cceaa904d29d5e9" target="_top" xlink:title="interface reset gpio write">
<polygon fill="white" stroke="#666666" points="250.25,-70 149.5,-70 149.5,-38 250.25,-38 250.25,-70"/>
<text xml:space="preserve" text-anchor="start" x="157.5" y="-56.5" font-family="Helvetica,sans-Serif" font-size="10.00">pca9548a_interface</text>
<text xml:space="preserve" text-anchor="middle" x="199.88" y="-44.5" font-family="Helvetica,sans-Serif" font-size="10.00">_reset_gpio_write</text>
</a>
</g>
</g>
<!-- Node1&#45;&gt;Node15 -->
<g id="edge14_Node000001_Node000015" class="edge">
<title>Node1&#45;&gt;Node15</title>
<g id="a_edge14_Node000001_Node000015"><a xlink:title=" ">
<path fill="none" stroke="#63b8ff" d="M53.57,-343.52C55.35,-303.74 66.8,-160.25 140.5,-79 140.96,-78.49 141.44,-77.99 141.92,-77.5"/>
<polygon fill="#63b8ff" stroke="#63b8ff" points="143.94,-80.37 149.48,-71.34 139.52,-74.94 143.94,-80.37"/>
</a>
</g>
</g>
<!-- Node16 -->
<g id="Node000016" class="node">
<title>Node16</title>
<g id="a_Node000016"><a xlink:href="group__pca9548a__base__driver.html#gabac2125c0453225301b6c193959abd76" target="_top" xlink:title="set the address pin">
<polygon fill="white" stroke="#666666" points="259.25,-20 140.5,-20 140.5,0 259.25,0 259.25,-20"/>
<text xml:space="preserve" text-anchor="middle" x="199.88" y="-6.5" font-family="Helvetica,sans-Serif" font-size="10.00">pca9548a_set_addr_pin</text>
</a>
</g>
</g>
<!-- Node1&#45;&gt;Node16 -->
<g id="edge15_Node000001_Node000016" class="edge">
<title>Node1&#45;&gt;Node16</title>
<g id="a_edge15_Node000001_Node000016"><a xlink:title=" ">
<path fill="none" stroke="#63b8ff" d="M52.74,-343.6C51.17,-299.18 51.02,-123.29 140.5,-29 141.22,-28.24 141.98,-27.51 142.76,-26.81"/>
<polygon fill="#63b8ff" stroke="#63b8ff" points="144.56,-29.81 150.76,-21.22 140.56,-24.07 144.56,-29.81"/>
</a>
</g>
</g>
</g>
</svg>
